# xmcd
#
# Track frame offsets: 
#        150
#        3535
#        17105
#        23190
#        25205
#        40715
#        56535
#        68240
#        76575
#        94845
#        97775
#        107140
#        125810
#        135460
#        144595
#        158440
#        159785
#        171145
#        183365
#        206390
#
# Disc length: 2800 seconds
#
# Revision: 0
# Processed by: cddbd v1.4PL0 Copyright (c) Steve Scherf et al.
# Submitted via: ExactAudioCopy v0.90b3
#
DISCID=f10aee14
DTITLE=Mark, Carolyn And Her Room-Mates - Present A Tribute To Robert 
DTITLE=Altman's Nashville
DYEAR=2002
DGENRE=
TTITLE0=Speech #1
TTITLE1=200 Years
TTITLE2=Oh These Troubled Times
TTITLE3=Speech #2
TTITLE4=Bluebird
TTITLE5=For The Sake Of The Children
TTITLE6=Keep A-Goin'
TTITLE7=Memphis
TTITLE8=Rolling Stone
TTITLE9=Speech #3
TTITLE10=Tape Deck In His Tractor
TTITLE11=Dues
TTITLE12=Since You've Gone
TTITLE13=I Never Get Enough
TTITLE14=I'm Easy
TTITLE15=Elliott Gould
TTITLE16=One, I Love You
TTITLE17=My Idaho Home
TTITLE18=It Don't Worry Me
TTITLE19=Let Me Be The One
EXTD=
EXTT0=
EXTT1=
EXTT2=
EXTT3=
EXTT4=
EXTT5=
EXTT6=
EXTT7=
EXTT8=
EXTT9=
EXTT10=
EXTT11=
EXTT12=
EXTT13=
EXTT14=
EXTT15=
EXTT16=
EXTT17=
EXTT18=
EXTT19=
PLAYORDER=
